<svg xmlns="http://www.w3.org/2000/svg" xmlns:xlink="http://www.w3.org/1999/xlink" width="592" height="748" viewBox="0 0 443.8 561"><g id="graph0" class="graph" transform="scale(1 1) rotate(0) translate(83.8691 333.5)"><title>controllers_diagram</title><polygon fill="none" stroke="none" points="-83.869 227.5 -83.869 -333.5 359.935 -333.5 359.935 227.5 -83.869 227.5"/><g id="node1" class="node"><title>_diagram_info</title><text x="120.312" y="-171.1" font-family="Times,serif" font-size="13" text-anchor="start">Controllers diagram</text><text x="120.312" y="-158.1" font-family="Times,serif" font-size="13" text-anchor="start">Date: Nov 01 2016 - 14:12</text><text x="120.312" y="-145.1" font-family="Times,serif" font-size="13" text-anchor="start">Migration version: 20160914142510</text><text x="120.312" y="-132.1" font-family="Times,serif" font-size="13" text-anchor="start">Generated by RailRoady 1.5.2</text><text x="120.312" y="-119.1" font-family="Times,serif" font-size="13" text-anchor="start">http://railroady.prestonlee.com</text></g><g id="node2" class="node"><title>Api::ApiController</title><path fill="none" stroke="#000" d="M108.338,95C108.338,95 207.662,95 207.662,95 213.662,95 219.662,89 219.662,83 219.662,83 219.662,-67 219.662,-67 219.662,-73 213.662,-79 207.662,-79 207.662,-79 108.338,-79 108.338,-79 102.338,-79 96.3379,-73 96.3379,-67 96.3379,-67 96.3379,83 96.3379,83 96.3379,89 102.338,95 108.338,95"/><text x="158" y="-63.8" font-family="Times,serif" font-size="14" text-anchor="middle">Api::ApiController</text><polyline fill="none" stroke="#000" points="96.338 -57 219.662 -57"/><text x="104.338" y="-41.8" font-family="Times,serif" font-size="14" text-anchor="start">create</text><text x="104.338" y="-27.8" font-family="Times,serif" font-size="14" text-anchor="start">index</text><text x="104.338" y="-13.8" font-family="Times,serif" font-size="14" text-anchor="start">ping</text><text x="104.338" y=".2" font-family="Times,serif" font-size="14" text-anchor="start">show</text><text x="104.338" y="14.2" font-family="Times,serif" font-size="14" text-anchor="start">update</text><polyline fill="none" stroke="#000" points="96.338 21 219.662 21"/><polyline fill="none" stroke="#000" points="96.338 45 219.662 45"/><text x="104.338" y="60.2" font-family="Times,serif" font-size="14" text-anchor="start">in_weekly_mode?</text><text x="104.338" y="74.2" font-family="Times,serif" font-size="14" text-anchor="start">resource_params</text><text x="104.338" y="88.2" font-family="Times,serif" font-size="14" text-anchor="start">set_date</text></g><g id="node3" class="node"><title>ApplicationController</title><path fill="none" stroke="#000" d="M-51.8208,-113C-51.8208,-113 63.8208,-113 63.8208,-113 69.8208,-113 75.8208,-119 75.8208,-125 75.8208,-125 75.8208,-207 75.8208,-207 75.8208,-213 69.8208,-219 63.8208,-219 63.8208,-219 -51.8208,-219 -51.8208,-219 -57.8208,-219 -63.8208,-213 -63.8208,-207 -63.8208,-207 -63.8208,-125 -63.8208,-125 -63.8208,-119 -57.8208,-113 -51.8208,-113"/><text x="6" y="-203.8" font-family="Times,serif" font-size="14" text-anchor="middle">ApplicationController</text><polyline fill="none" stroke="#000" points="-63.821 -197 75.821 -197"/><polyline fill="none" stroke="#000" points="-63.821 -173 75.821 -173"/><polyline fill="none" stroke="#000" points="-63.821 -149 75.821 -149"/><text x="-55.821" y="-133.8" font-family="Times,serif" font-size="14" text-anchor="start">_layout</text><text x="-55.821" y="-119.8" font-family="Times,serif" font-size="14" text-anchor="start">set_locale</text></g><g id="node4" class="node"><title>ApprovalsController</title><path fill="none" stroke="#000" d="M236.065,-225C236.065,-225 343.935,-225 343.935,-225 349.935,-225 355.935,-231 355.935,-237 355.935,-237 355.935,-317 355.935,-317 355.935,-323 349.935,-329 343.935,-329 343.935,-329 236.065,-329 236.065,-329 230.065,-329 224.065,-323 224.065,-317 224.065,-317 224.065,-237 224.065,-237 224.065,-231 230.065,-225 236.065,-225"/><text x="290" y="-313.8" font-family="Times,serif" font-size="14" text-anchor="middle">ApprovalsController</text><polyline fill="none" stroke="#000" points="224.065 -307 355.935 -307"/><text x="232.065" y="-291.8" font-family="Times,serif" font-size="14" text-anchor="start">approve_user</text><text x="232.065" y="-277.8" font-family="Times,serif" font-size="14" text-anchor="start">index</text><polyline fill="none" stroke="#000" points="224.065 -271 355.935 -271"/><polyline fill="none" stroke="#000" points="224.065 -247 355.935 -247"/><text x="232.065" y="-231.8" font-family="Times,serif" font-size="14" text-anchor="start">_layout</text></g><g id="node5" class="node"><title>DashboardController</title><path fill="none" stroke="#000" d="M-67.8691,95C-67.8691,95 57.8691,95 57.8691,95 63.8691,95 69.8691,89 69.8691,83 69.8691,83 69.8691,-67 69.8691,-67 69.8691,-73 63.8691,-79 57.8691,-79 57.8691,-79 -67.8691,-79 -67.8691,-79 -73.8691,-79 -79.8691,-73 -79.8691,-67 -79.8691,-67 -79.8691,83 -79.8691,83 -79.8691,89 -73.8691,95 -67.8691,95"/><text x="-5" y="-63.8" font-family="Times,serif" font-size="14" text-anchor="middle">DashboardController</text><polyline fill="none" stroke="#000" points="-79.869 -57 69.869 -57"/><text x="-71.869" y="-41.8" font-family="Times,serif" font-size="14" text-anchor="start">create_booking</text><text x="-71.869" y="-27.8" font-family="Times,serif" font-size="14" text-anchor="start">delete_booking</text><text x="-71.869" y="-13.8" font-family="Times,serif" font-size="14" text-anchor="start">edit_booking</text><text x="-71.869" y=".2" font-family="Times,serif" font-size="14" text-anchor="start">index</text><polyline fill="none" stroke="#000" points="-79.869 7 69.869 7"/><polyline fill="none" stroke="#000" points="-79.869 31 69.869 31"/><text x="-71.869" y="46.2" font-family="Times,serif" font-size="14" text-anchor="start">_layout</text><text x="-71.869" y="60.2" font-family="Times,serif" font-size="14" text-anchor="start">booking_params</text><text x="-71.869" y="74.2" font-family="Times,serif" font-size="14" text-anchor="start">delete_booking_params</text><text x="-71.869" y="88.2" font-family="Times,serif" font-size="14" text-anchor="start">get_date</text></g><g id="node6" class="node"><title>PagesController</title><path fill="none" stroke="#000" d="M11.9585,223C11.9585,223 112.042,223 112.042,223 118.042,223 124.042,217 124.042,211 124.042,211 124.042,145 124.042,145 124.042,139 118.042,133 112.042,133 112.042,133 11.9585,133 11.9585,133 5.9585,133 -0.0415039,139 -0.0415039,145 -0.0415039,145 -0.0415039,211 -0.0415039,211 -0.0415039,217 5.9585,223 11.9585,223"/><text x="62" y="148.2" font-family="Times,serif" font-size="14" text-anchor="middle">PagesController</text><polyline fill="none" stroke="#000" points="-.042 155 124.042 155"/><polyline fill="none" stroke="#000" points="-.042 179 124.042 179"/><text x="7.958" y="194.2" font-family="Times,serif" font-size="14" text-anchor="start">_layout_from_proc</text><polyline fill="none" stroke="#000" points="-.042 201 124.042 201"/><text x="7.958" y="216.2" font-family="Times,serif" font-size="14" text-anchor="start">_layout</text></g></g></svg>