<svg xmlns="http://www.w3.org/2000/svg" xmlns:xlink="http://www.w3.org/1999/xlink" width="1320" height="428" viewBox="0 0 990.32 321"><g id="graph0" class="graph" transform="scale(1 1) rotate(0) translate(4 317)"><title>models_diagram</title><polygon fill="none" stroke="none" points="-4 4 -4 -317 986.323 -317 986.323 4 -4 4"/><g id="node1" class="node"><title>_diagram_info</title><text x="8" y="-221.6" font-family="Times,serif" font-size="13" text-anchor="start">Models diagram</text><text x="8" y="-208.6" font-family="Times,serif" font-size="13" text-anchor="start">Date: Nov 01 2016 - 14:12</text><text x="8" y="-195.6" font-family="Times,serif" font-size="13" text-anchor="start">Migration version: 20160914142510</text><text x="8" y="-182.6" font-family="Times,serif" font-size="13" text-anchor="start">Generated by RailRoady 1.5.2</text><text x="8" y="-169.6" font-family="Times,serif" font-size="13" text-anchor="start">http://railroady.prestonlee.com</text></g><g id="node2" class="node"><title>ApplicationRecord</title><ellipse cx="302.688" cy="-199.5" fill="none" stroke="#000" rx="77.292" ry="18"/><text x="302.688" y="-195.3" font-family="Times,serif" font-size="14" text-anchor="middle">ApplicationRecord</text></g><g id="node3" class="node"><title>Resource</title><path fill="none" stroke="#000" d="M409.825,-128.5C409.825,-128.5 633.55,-128.5 633.55,-128.5 639.55,-128.5 645.55,-134.5 645.55,-140.5 645.55,-140.5 645.55,-258.5 645.55,-258.5 645.55,-264.5 639.55,-270.5 633.55,-270.5 633.55,-270.5 409.825,-270.5 409.825,-270.5 403.825,-270.5 397.825,-264.5 397.825,-258.5 397.825,-258.5 397.825,-140.5 397.825,-140.5 397.825,-134.5 403.825,-128.5 409.825,-128.5"/><text x="521.688" y="-255.3" font-family="Times,serif" font-size="14" text-anchor="middle">Resource</text><polyline fill="none" stroke="#000" points="397.825 -248.5 645.55 -248.5"/><text x="405.825" y="-233.3" font-family="Times,serif" font-size="14" text-anchor="start">uuid :character varying</text><text x="405.825" y="-219.3" font-family="Times,serif" font-size="14" text-anchor="start">designation :character varying</text><text x="405.825" y="-205.3" font-family="Times,serif" font-size="14" text-anchor="start">description :text</text><text x="405.825" y="-191.3" font-family="Times,serif" font-size="14" text-anchor="start">created_at :timestamp without time zone</text><text x="405.825" y="-177.3" font-family="Times,serif" font-size="14" text-anchor="start">updated_at :timestamp without time zone</text><text x="405.825" y="-163.3" font-family="Times,serif" font-size="14" text-anchor="start">capacity :integer</text><text x="405.825" y="-149.3" font-family="Times,serif" font-size="14" text-anchor="start">schedule :text</text><text x="405.825" y="-135.3" font-family="Times,serif" font-size="14" text-anchor="start">id :integer</text></g><g id="node5" class="node"><title>ActsAsBookable::Booking</title><ellipse cx="671.688" cy="-18" fill="none" stroke="#000" rx="105.332" ry="18"/><text x="671.688" y="-13.8" font-family="Times,serif" font-size="14" text-anchor="middle">ActsAsBookable::Booking</text></g><g id="edge1" class="edge"><title>Resource-&gt;ActsAsBookable::Booking</title><path fill="none" stroke="#d4ef6b" d="M585.629,-121.984C609.062,-93.9425 633.967,-64.139 650.923,-43.8485"/><ellipse cx="582.891" cy="-125.26" fill="none" stroke="#d4ef6b" rx="4" ry="4"/><polygon fill="#d4ef6b" stroke="#d4ef6b" points="651.042 -43.706 660.907 -38.919 654.248 -39.87 657.454 -36.033 657.454 -36.033 657.454 -36.033 654.248 -39.87 654.001 -33.147 651.042 -43.706 651.042 -43.706"/><text x="664.357" y="-56.8" font-family="Times,serif" font-size="14" text-anchor="middle">bookings</text></g><g id="node4" class="node"><title>User</title><path fill="none" stroke="#000" d="M675.053,-86.5C675.053,-86.5 970.323,-86.5 970.323,-86.5 976.323,-86.5 982.323,-92.5 982.323,-98.5 982.323,-98.5 982.323,-300.5 982.323,-300.5 982.323,-306.5 976.323,-312.5 970.323,-312.5 970.323,-312.5 675.053,-312.5 675.053,-312.5 669.053,-312.5 663.053,-306.5 663.053,-300.5 663.053,-300.5 663.053,-98.5 663.053,-98.5 663.053,-92.5 669.053,-86.5 675.053,-86.5"/><text x="822.688" y="-297.3" font-family="Times,serif" font-size="14" text-anchor="middle">User</text><polyline fill="none" stroke="#000" points="663.053 -290.5 982.323 -290.5"/><text x="671.053" y="-275.3" font-family="Times,serif" font-size="14" text-anchor="start">approved :boolean</text><text x="671.053" y="-261.3" font-family="Times,serif" font-size="14" text-anchor="start">email :character varying</text><text x="671.053" y="-247.3" font-family="Times,serif" font-size="14" text-anchor="start">encrypted_password :character varying</text><text x="671.053" y="-233.3" font-family="Times,serif" font-size="14" text-anchor="start">reset_password_token :character varying</text><text x="671.053" y="-219.3" font-family="Times,serif" font-size="14" text-anchor="start">reset_password_sent_at :timestamp without time zone</text><text x="671.053" y="-205.3" font-family="Times,serif" font-size="14" text-anchor="start">remember_created_at :timestamp without time zone</text><text x="671.053" y="-191.3" font-family="Times,serif" font-size="14" text-anchor="start">sign_in_count :integer</text><text x="671.053" y="-177.3" font-family="Times,serif" font-size="14" text-anchor="start">current_sign_in_at :timestamp without time zone</text><text x="671.053" y="-163.3" font-family="Times,serif" font-size="14" text-anchor="start">last_sign_in_at :timestamp without time zone</text><text x="671.053" y="-149.3" font-family="Times,serif" font-size="14" text-anchor="start">current_sign_in_ip :inet</text><text x="671.053" y="-135.3" font-family="Times,serif" font-size="14" text-anchor="start">last_sign_in_ip :inet</text><text x="671.053" y="-121.3" font-family="Times,serif" font-size="14" text-anchor="start">created_at :timestamp without time zone</text><text x="671.053" y="-107.3" font-family="Times,serif" font-size="14" text-anchor="start">updated_at :timestamp without time zone</text><text x="671.053" y="-93.3" font-family="Times,serif" font-size="14" text-anchor="start">id :integer</text></g><g id="edge2" class="edge"><title>User-&gt;ActsAsBookable::Booking</title><path fill="none" stroke="#f39f97" d="M722.957,-79.9461C711.652,-66.5067 701.157,-54.0311 692.645,-43.9133"/><ellipse cx="725.769" cy="-83.289" fill="none" stroke="#f39f97" rx="4" ry="4"/><polygon fill="#f39f97" stroke="#f39f97" points="692.426 -43.652 689.432 -33.102 689.207 -39.826 685.988 -35.999 685.988 -35.999 685.988 -35.999 689.207 -39.826 682.544 -38.896 692.426 -43.652 692.426 -43.652"/><text x="737.357" y="-56.8" font-family="Times,serif" font-size="14" text-anchor="middle">bookings</text></g></g></svg>