<svg xmlns="http://www.w3.org/2000/svg" xmlns:xlink="http://www.w3.org/1999/xlink" width="598pt" height="167pt" viewBox="0 0 598.1 167"><g id="graph0" class="graph" transform="scale(1 1) rotate(0) translate(4 163)"><title>models_diagram</title><polygon fill="none" stroke="none" points="-4 4 -4 -163 594.104 -163 594.104 4 -4 4"/><g id="node1" class="node"><title>_diagram_info</title><text x="8" y="-144.6" font-family="Times,serif" font-size="13" text-anchor="start">Models diagram</text><text x="8" y="-131.6" font-family="Times,serif" font-size="13" text-anchor="start">Date: Nov 01 2016 - 14:12</text><text x="8" y="-118.6" font-family="Times,serif" font-size="13" text-anchor="start">Migration version: 20160914142510</text><text x="8" y="-105.6" font-family="Times,serif" font-size="13" text-anchor="start">Generated by RailRoady 1.5.2</text><text x="8" y="-92.6" font-family="Times,serif" font-size="13" text-anchor="start">http://railroady.prestonlee.com</text></g><g id="node2" class="node"><title>ApplicationRecord</title><ellipse cx="302.688" cy="-122.5" fill="none" stroke="#000" rx="77.292" ry="18"/><text x="302.688" y="-118.3" font-family="Times,serif" font-size="14" text-anchor="middle">ApplicationRecord</text></g><g id="node3" class="node"><title>Resource</title><ellipse cx="440.688" cy="-122.5" fill="none" stroke="#000" rx="43.022" ry="18"/><text x="440.688" y="-118.3" font-family="Times,serif" font-size="14" text-anchor="middle">Resource</text></g><g id="node5" class="node"><title>ActsAsBookable::Booking</title><ellipse cx="484.688" cy="-18" fill="none" stroke="#000" rx="105.332" ry="18"/><text x="484.688" y="-13.8" font-family="Times,serif" font-size="14" text-anchor="middle">ActsAsBookable::Booking</text></g><g id="edge1" class="edge"><title>Resource-&gt;ActsAsBookable::Booking</title><path fill="none" stroke="#26ed12" d="M443.23,-96.2497C445.265,-83.142 448.899,-67.1613 455.35,-54 457.018,-50.596 459.087,-47.2427 461.348,-44.0398"/><ellipse cx="442.655" cy="-100.427" fill="none" stroke="#26ed12" rx="4" ry="4"/><polygon fill="#26ed12" stroke="#26ed12" points="461.486 -43.863 471.187 -38.751 464.563 -39.922 467.64 -35.981 467.64 -35.981 467.64 -35.981 464.563 -39.922 464.093 -33.212 461.486 -43.863 461.486 -43.863"/><text x="480.357" y="-56.8" font-family="Times,serif" font-size="14" text-anchor="middle">bookings</text></g><g id="node4" class="node"><title>User</title><ellipse cx="528.688" cy="-122.5" fill="none" stroke="#000" rx="27" ry="18"/><text x="528.688" y="-118.3" font-family="Times,serif" font-size="14" text-anchor="middle">User</text></g><g id="edge2" class="edge"><title>User-&gt;ActsAsBookable::Booking</title><path fill="none" stroke="#697adf" d="M522.179,-96.6435C518.382,-83.6445 513.079,-67.6421 506.688,-54 505.257,-50.9454 503.61,-47.8326 501.874,-44.7861"/><ellipse cx="523.367" cy="-100.848" fill="none" stroke="#697adf" rx="4" ry="4"/><polygon fill="#697adf" stroke="#697adf" points="501.713 -44.521 500.377 -33.636 499.121 -40.245 496.529 -35.969 496.529 -35.969 496.529 -35.969 499.121 -40.245 492.681 -38.302 501.713 -44.521 501.713 -44.521"/><text x="537.357" y="-56.8" font-family="Times,serif" font-size="14" text-anchor="middle">bookings</text></g></g></svg>